# xmcd
#
# Track frame offsets:
#	150
#	11826
#	25675
#	37801
#	48518
#	63772
#	75278
#	88486
#	103965
#	115016
#	123821
#	144128
#	156556
#
# Disc length: 2264 seconds
#
# Revision: 0
# Processed by: cddbd v1.5.1PL0 Copyright (c) Steve Scherf et al.
# Submitted via: audiograbber 1.80
#
DISCID=9c08d60d
DTITLE=Tazmanian Devils - Evil Boppin'
DYEAR=1900
DGENRE=
TTITLE0=12 O' Clock Shock
TTITLE1=No More
TTITLE2=Hot Rod Trip
TTITLE3=Tonight
TTITLE4=On Your Way
TTITLE5=Mean Mean Man
TTITLE6=Killing Kind Of Love
TTITLE7=Evil Bop
TTITLE8=Railroad Blues
TTITLE9=Record Machine
TTITLE10=Mary Lou
TTITLE11=Beware Of The Martians
TTITLE12=Other Side Of Town
EXTD=
EXTT0=
EXTT1=
EXTT2=
EXTT3=
EXTT4=
EXTT5=
EXTT6=
EXTT7=
EXTT8=
EXTT9=
EXTT10=
EXTT11=
EXTT12=
PLAYORDER=
